<svg viewBox="0 0 497.05 143.35" xmlns="http://www.w3.org/2000/svg"><g fill="#f2285a"><path d="m22.44 142v-46.32l-22.44-94.37h27.85l7.86 47.69 7.87-47.69h27.85l-22.43 94.37v46.32z"/><path d="m86.17 133q-8.83-10.41-8.84-29.25v-67q0-18.2 8.84-27.44t25.89-9.31q17 0 25.88 9.26t8.85 27.44v67q0 19-8.85 29.33t-25.88 10.32q-17.06 0-25.89-10.35zm31-18.76a25.6 25.6 0 0 0 1.31-9.18v-68.85a19.13 19.13 0 0 0 -1.23-7.46q-1.23-2.87-5-2.87c-4.69 0-7 3.56-7 10.65v68.65q0 6.06 1.47 9.17t5.41 3.12a5 5 0 0 0 5.01-3.28z"/><path d="m154.33 142 13.59-140.69h47.68l13.4 140.69h-26.7l-2-22.77h-17l-1.61 22.77zm31.13-45.22h12.77l-6.23-71.55h-1.3z"/><path d="m243.28 133.85q-8.52-9.5-8.52-30.64v-13.76h27.69v17.55q0 10.49 6.72 10.49 3.76 0 5.24-2.22c1-1.47 1.48-4 1.48-7.45a33.81 33.81 0 0 0 -1.64-11.39 25.06 25.06 0 0 0 -4.18-7.53q-2.54-3-9.09-9.42l-12.13-12.15q-14.08-13.76-14.09-30.47 0-18 8.28-27.44t24.16-9.42q19 0 27.36 10.08t8.36 31.53h-28.67l-.17-9.61a6.21 6.21 0 0 0 -1.55-4.43 5.72 5.72 0 0 0 -4.34-1.64 6.32 6.32 0 0 0 -4.92 1.81 7 7 0 0 0 -1.64 4.91q0 6.88 7.87 14.26l16.38 15.72a94.12 94.12 0 0 1 9.5 10.57 41.52 41.52 0 0 1 6.06 11.8 50.58 50.58 0 0 1 2.3 16.13q0 20.82-7.62 31.54t-25.12 10.68q-19.2 0-27.72-9.5z"/><path d="m320.78 133q-8.85-10.41-8.85-29.25v-67q0-18.2 8.85-27.44t25.88-9.31q17 0 25.89 9.26t8.84 27.44v67q0 19-8.84 29.33t-25.89 10.32q-17.04 0-25.88-10.35zm31-18.76a25.6 25.6 0 0 0 1.31-9.18v-68.85a19.13 19.13 0 0 0 -1.23-7.46c-.82-1.91-2.48-2.87-5-2.87-4.69 0-7 3.56-7 10.65v68.65q0 6.06 1.47 9.17t5.41 3.12a5 5 0 0 0 5-3.28z"/><path d="m392.7 1.31h38.17q15.39 0 22.36 7.54t7 24.57v6.23q0 20.15-14.42 24.08a17.74 17.74 0 0 1 12.45 10.65q3.6 8.36 3.6 22.12 0 22.44-6.71 34t-24.28 11.5h-38.17zm33.3 52.92q3.59 0 4.91-2.71a17.89 17.89 0 0 0 1.31-7.61v-14.09q0-6.88-6.06-6.88h-5.9v31.29zm8 52.59v-17.53q0-6.39-1.88-9.67c-1.26-2.18-3.47-3.28-6.64-3.28h-5.24v40.8l2.79.16q10.97 0 10.97-10.48z"/><path d="m469.86 142v-140.69h27.19v140.69z"/></g></svg>